# xmcd CD database file
#
# Track frame offsets:
#	150
#	49112
#	99714
#	148466
#	198465
#	248836
#	297316
#
# Disc length: 4601 seconds
#
# Revision: 0
# Processed by: cddbd v1.5.2PL0 Copyright (c) Steve Scherf et al.
# Submitted via: CDex 1.51
#
DISCID=7011f707
DTITLE=Seckund Naychur - Chakra Journeys
DYEAR=2002
DGENRE=New Age
TTITLE0=Root - Key of C
TTITLE1=Sacral - Key of D
TTITLE2=Solar Plexus - Key of E
TTITLE3=Heart - Key of F
TTITLE4=Throat - Key of G
TTITLE5=Third Eye - Key of A
TTITLE6=Crown - Key of B
EXTD=YEAR: 2002
EXTT0=
EXTT1=
EXTT2=
EXTT3=
EXTT4=
EXTT5=
EXTT6=
PLAYORDER=
